<svg version="1.1" id="Layer_1" xmlns="http://www.w3.org/2000/svg" xmlns:xlink="http://www.w3.org/1999/xlink" x="0px" y="0px"
	 width="100%" viewBox="0 0 474 421" enable-background="new 0 0 474 421" xml:space="preserve">
<path fill="#F8F8F7" opacity="1.000000" stroke="none" 
	d="
M230.000000,422.000000 
	C153.354599,422.000000 77.209190,422.000000 1.031890,422.000000 
	C1.031890,281.727112 1.031890,141.454193 1.031890,1.090647 
	C158.895416,1.090647 316.790924,1.090647 474.843201,1.090647 
	C474.843201,141.333191 474.843201,281.666565 474.843201,422.000000 
	C393.454163,422.000000 311.977081,422.000000 230.000000,422.000000 
M385.326111,240.121063 
	C379.900574,243.017563 377.619049,247.857803 377.599304,253.684006 
	C377.503082,282.104645 377.576416,310.525787 377.524933,338.946686 
	C377.516693,343.479889 379.907257,345.218994 384.054474,345.187592 
	C388.198914,345.156219 390.479797,343.482056 390.375305,338.848907 
	C390.187927,330.544373 390.390015,322.231110 391.325714,314.048065 
	C401.118134,315.445465 410.898743,316.114655 420.476562,312.839294 
	C426.674500,310.719788 430.901581,306.653564 430.974976,299.771271 
	C431.145477,283.786011 431.068695,267.797577 431.017761,251.810699 
	C431.001434,246.687897 428.521423,242.485153 424.083862,240.450150 
	C411.559021,234.706421 398.758789,234.410065 385.326111,240.121063 
M223.459091,110.876335 
	C220.944016,113.514336 218.005508,115.864449 215.983917,118.837952 
	C204.515594,135.706329 212.362869,157.575363 232.337967,164.362717 
	C235.258881,165.355209 236.206604,166.562729 236.185715,169.595108 
	C236.049347,189.390747 236.171249,209.188202 236.026978,228.983734 
	C236.007446,231.662964 235.849319,235.769775 234.247086,236.749878 
	C228.705048,240.139984 227.594452,245.373764 226.986526,250.801788 
	C225.412399,264.856812 224.587021,279.005005 222.680069,293.009460 
	C221.755066,299.802643 224.250351,304.743134 228.334167,309.268921 
	C233.711517,315.228241 248.734283,314.545746 253.689804,308.311646 
	C257.426361,303.611053 259.853241,298.513062 258.595642,292.193665 
	C257.982086,289.110657 257.923553,285.919098 257.575378,282.780945 
	C256.254822,270.879303 255.182739,258.939850 253.410416,247.105453 
	C252.942398,243.980377 250.289520,241.185104 248.651947,238.231720 
	C247.550873,236.245880 245.546341,234.258652 245.524002,232.254440 
	C245.290039,211.270370 245.419449,190.282501 245.318726,169.296326 
	C245.305359,166.512711 246.149811,165.196381 248.904083,164.345886 
	C256.167603,162.102997 261.937195,157.443909 265.970520,151.173691 
	C273.596954,139.317642 271.401886,123.487022 261.269653,113.571030 
	C251.292374,103.806686 236.146164,102.606209 223.459091,110.876335 
M95.249954,296.966858 
	C95.254288,289.634308 95.308434,282.301392 95.251488,274.969330 
	C95.161713,263.410522 90.416412,257.878845 78.932442,256.068481 
	C75.817703,255.577454 72.633453,255.531982 69.482666,255.263763 
	C66.336945,254.995987 63.170593,254.854919 60.054623,254.384491 
	C56.626537,253.866928 54.840919,251.782761 54.863796,248.177139 
	C54.912434,240.511597 54.902283,232.845291 54.852848,225.179703 
	C54.829807,221.606384 56.576366,219.213089 59.990402,218.936447 
	C65.267242,218.508865 70.607887,218.407654 75.893082,218.693298 
	C79.971191,218.913712 82.044365,221.498230 81.915146,225.769470 
	C81.794250,229.765121 81.881699,233.767929 81.916939,237.767258 
	C81.954430,242.023422 84.807137,243.023682 88.301102,243.061020 
	C91.895416,243.099411 95.150490,242.450089 95.212975,237.828674 
	C95.273788,233.330795 95.266586,228.830002 95.179428,224.332611 
	C95.036484,216.957077 91.361946,212.104477 84.392334,209.806702 
	C74.622093,206.585632 64.642250,206.599533 54.818741,209.053909 
	C44.901520,211.531677 41.579945,216.389679 41.507229,226.769836 
	C41.460533,233.435440 41.462551,240.102341 41.536011,246.767624 
	C41.647938,256.922485 44.848351,261.390594 54.619888,264.156555 
	C58.252117,265.184692 62.162067,265.275269 65.958389,265.667328 
	C69.430466,266.025909 72.960442,265.972717 76.390770,266.545166 
	C79.867661,267.125427 81.954819,269.225159 81.914345,273.103516 
	C81.829140,281.268494 81.849167,289.435120 81.894043,297.600677 
	C81.914932,301.403839 80.065201,303.811768 76.387047,304.033875 
	C71.092094,304.353546 65.748306,304.389496 60.456184,304.056519 
	C56.566086,303.811707 54.682289,301.320404 54.835041,297.241119 
	C54.997032,292.914917 54.832638,288.577148 54.845436,284.244537 
	C54.858227,279.916016 51.984623,279.024200 48.510891,278.950348 
	C44.972630,278.875061 41.585728,279.226532 41.462730,283.939575 
	C41.341053,288.602051 41.230133,293.271179 41.341408,297.931946 
	C41.534939,306.038239 44.801266,310.583313 52.616524,313.119843 
	C62.716793,316.398010 72.997864,316.369232 83.139641,313.396912 
	C91.733017,310.878387 94.581383,306.902100 95.249954,296.966858 
M339.751801,311.291718 
	C345.068329,308.231384 347.112732,303.477814 347.091400,297.522675 
	C347.040039,283.195740 347.126892,268.868286 347.063568,254.541473 
	C347.024567,245.716263 343.098785,240.566467 334.652283,238.134735 
	C325.465454,235.489868 316.239655,235.591843 307.029022,238.058273 
	C298.662659,240.298630 294.526855,245.112091 294.407532,253.771057 
	C294.203217,268.594879 294.342377,283.423859 294.389832,298.250519 
	C294.412750,305.407166 297.940247,310.558014 304.550720,312.774597 
	C316.099548,316.646973 327.747742,316.898865 339.751801,311.291718 
M136.947830,238.289474 
	C129.125290,241.283173 125.706039,246.937637 125.847473,255.325439 
	C126.083473,269.321289 125.863281,283.324280 125.923805,297.323914 
	C125.961006,305.928223 129.369888,310.718689 137.531693,313.276459 
	C147.322617,316.344788 157.262741,316.265320 167.108795,313.564514 
	C175.841309,311.169128 179.495651,306.189728 179.621552,297.246368 
	C179.699020,291.744232 178.057938,289.708771 173.448105,289.589264 
	C168.596115,289.463470 166.976059,291.019867 166.980179,296.692413 
	C166.983322,301.039062 165.334625,304.098175 160.972626,304.404480 
	C155.361221,304.798615 149.678146,304.718140 144.063629,304.315948 
	C140.732651,304.077301 138.773514,301.759277 138.776688,298.155792 
	C138.789688,283.322784 138.786133,268.489777 138.776123,253.656754 
	C138.773560,249.874649 140.724030,247.606277 144.353439,247.183823 
	C147.978058,246.761932 151.659927,246.670395 155.314606,246.699295 
	C164.974396,246.775650 165.941055,247.610855 166.901779,257.228241 
	C167.285278,261.067444 169.757019,261.820435 172.778214,261.865540 
	C175.878235,261.911804 178.862396,261.572723 179.546982,257.560822 
	C181.192307,247.918655 176.479416,240.353363 166.877975,237.879700 
	C157.171570,235.379013 147.410767,235.630615 136.947830,238.289474 
z"/>
<path fill="#F8AD2D" opacity="1.000000" stroke="none" 
	d="
M223.794678,110.751862 
	C236.146164,102.606209 251.292374,103.806686 261.269653,113.571030 
	C271.401886,123.487022 273.596954,139.317642 265.970520,151.173691 
	C261.937195,157.443909 256.167603,162.102997 248.904083,164.345886 
	C246.149811,165.196381 245.305359,166.512711 245.318726,169.296326 
	C245.419449,190.282501 245.290039,211.270370 245.524002,232.254440 
	C245.546341,234.258652 247.550873,236.245880 248.651947,238.231720 
	C250.289520,241.185104 252.942398,243.980377 253.410416,247.105453 
	C255.182739,258.939850 256.254822,270.879303 257.575378,282.780945 
	C257.923553,285.919098 257.982086,289.110657 258.595642,292.193665 
	C259.853241,298.513062 257.426361,303.611053 253.689804,308.311646 
	C248.734283,314.545746 233.711517,315.228241 228.334167,309.268921 
	C224.250351,304.743134 221.755066,299.802643 222.680069,293.009460 
	C224.587021,279.005005 225.412399,264.856812 226.986526,250.801788 
	C227.594452,245.373764 228.705048,240.139984 234.247086,236.749878 
	C235.849319,235.769775 236.007446,231.662964 236.026978,228.983734 
	C236.171249,209.188202 236.049347,189.390747 236.185715,169.595108 
	C236.206604,166.562729 235.258881,165.355209 232.337967,164.362717 
	C212.362869,157.575363 204.515594,135.706329 215.983917,118.837952 
	C218.005508,115.864449 220.944016,113.514336 223.794678,110.751862 
M232.185593,154.580048 
	C237.257935,156.745804 242.200073,157.235138 247.622696,155.143753 
	C257.991272,151.144867 264.080414,138.160675 260.077789,127.550201 
	C256.258636,117.425957 242.877792,111.806885 232.638138,116.023796 
	C224.743103,119.275146 220.553787,125.355644 220.107605,133.685883 
	C219.622894,142.735901 223.333481,149.812775 232.185593,154.580048 
M234.118927,264.686462 
	C233.370270,274.618042 232.422104,284.540009 231.944336,294.484589 
	C231.635147,300.920319 235.365891,304.848694 240.844940,304.740509 
	C246.186035,304.635040 249.400681,300.977997 249.059616,294.517426 
	C248.517456,284.247833 247.693954,273.988647 246.758270,263.746216 
	C246.306137,258.796967 245.628098,253.820084 244.416870,249.015915 
	C244.019669,247.440552 241.620407,246.369949 240.136703,245.068527 
	C238.993271,246.406326 237.193909,247.586594 236.827759,249.111084 
	C235.668518,253.937653 235.045013,258.892883 234.118927,264.686462 
z"/>
<path fill="#8B5B32" opacity="1.000000" stroke="none" 
	d="
M95.238861,297.409485 
	C94.581383,306.902100 91.733017,310.878387 83.139641,313.396912 
	C72.997864,316.369232 62.716793,316.398010 52.616524,313.119843 
	C44.801266,310.583313 41.534939,306.038239 41.341408,297.931946 
	C41.230133,293.271179 41.341053,288.602051 41.462730,283.939575 
	C41.585728,279.226532 44.972630,278.875061 48.510891,278.950348 
	C51.984623,279.024200 54.858227,279.916016 54.845436,284.244537 
	C54.832638,288.577148 54.997032,292.914917 54.835041,297.241119 
	C54.682289,301.320404 56.566086,303.811707 60.456184,304.056519 
	C65.748306,304.389496 71.092094,304.353546 76.387047,304.033875 
	C80.065201,303.811768 81.914932,301.403839 81.894043,297.600677 
	C81.849167,289.435120 81.829140,281.268494 81.914345,273.103516 
	C81.954819,269.225159 79.867661,267.125427 76.390770,266.545166 
	C72.960442,265.972717 69.430466,266.025909 65.958389,265.667328 
	C62.162067,265.275269 58.252117,265.184692 54.619888,264.156555 
	C44.848351,261.390594 41.647938,256.922485 41.536011,246.767624 
	C41.462551,240.102341 41.460533,233.435440 41.507229,226.769836 
	C41.579945,216.389679 44.901520,211.531677 54.818741,209.053909 
	C64.642250,206.599533 74.622093,206.585632 84.392334,209.806702 
	C91.361946,212.104477 95.036484,216.957077 95.179428,224.332611 
	C95.266586,228.830002 95.273788,233.330795 95.212975,237.828674 
	C95.150490,242.450089 91.895416,243.099411 88.301102,243.061020 
	C84.807137,243.023682 81.954430,242.023422 81.916939,237.767258 
	C81.881699,233.767929 81.794250,229.765121 81.915146,225.769470 
	C82.044365,221.498230 79.971191,218.913712 75.893082,218.693298 
	C70.607887,218.407654 65.267242,218.508865 59.990402,218.936447 
	C56.576366,219.213089 54.829807,221.606384 54.852848,225.179703 
	C54.902283,232.845291 54.912434,240.511597 54.863796,248.177139 
	C54.840919,251.782761 56.626537,253.866928 60.054623,254.384491 
	C63.170593,254.854919 66.336945,254.995987 69.482666,255.263763 
	C72.633453,255.531982 75.817703,255.577454 78.932442,256.068481 
	C90.416412,257.878845 95.161713,263.410522 95.251488,274.969330 
	C95.308434,282.301392 95.254288,289.634308 95.238861,297.409485 
z"/>
<path fill="#8B592E" opacity="1.000000" stroke="none" 
	d="
M386.009918,240.070129 
	C398.758789,234.410065 411.559021,234.706421 424.083862,240.450150 
	C428.521423,242.485153 431.001434,246.687897 431.017761,251.810699 
	C431.068695,267.797577 431.145477,283.786011 430.974976,299.771271 
	C430.901581,306.653564 426.674500,310.719788 420.476562,312.839294 
	C410.898743,316.114655 401.118134,315.445465 390.560913,314.109863 
	C389.345154,316.073608 388.581238,317.962341 388.499969,319.880005 
	C388.221283,326.454681 388.406189,333.058472 387.853363,339.603790 
	C387.748688,340.843140 384.988525,342.854523 383.614227,342.730438 
	C382.006714,342.585327 380.467041,340.594055 379.130219,339.183533 
	C378.705292,338.735168 379.004425,337.582581 379.004303,336.752258 
	C379.001038,310.153778 378.994751,283.555267 379.022827,256.956818 
	C379.024231,255.647995 379.021576,254.195663 379.550812,253.056335 
	C381.586792,248.673218 383.838593,244.390366 386.009918,240.070129 
M390.840240,300.981842 
	C393.073700,302.202057 395.204254,304.149811 397.563110,304.483368 
	C401.802704,305.082855 406.197021,304.976715 410.494568,304.687714 
	C417.002777,304.250061 418.617218,302.401306 418.656067,295.912720 
	C418.720825,285.097900 418.678314,274.282410 418.678894,263.467224 
	C418.679749,246.785492 417.101105,245.389969 400.314667,246.727921 
	C396.425964,247.037872 392.603760,247.169083 389.629120,251.519180 
	C389.431671,267.779266 389.233215,284.039337 389.091431,300.299896 
	C389.091034,300.343842 389.919556,300.395050 390.840240,300.981842 
z"/>
<path fill="#8C5C33" opacity="1.000000" stroke="none" 
	d="
M339.431580,311.481812 
	C327.747742,316.898865 316.099548,316.646973 304.550720,312.774597 
	C297.940247,310.558014 294.412750,305.407166 294.389832,298.250519 
	C294.342377,283.423859 294.203217,268.594879 294.407532,253.771057 
	C294.526855,245.112091 298.662659,240.298630 307.029022,238.058273 
	C316.239655,235.591843 325.465454,235.489868 334.652283,238.134735 
	C343.098785,240.566467 347.024567,245.716263 347.063568,254.541473 
	C347.126892,268.868286 347.040039,283.195740 347.091400,297.522675 
	C347.112732,303.477814 345.068329,308.231384 339.431580,311.481812 
M334.203888,280.499695 
	C334.203522,271.837921 334.112030,263.174774 334.242035,254.514984 
	C334.305145,250.310577 332.489227,247.553055 328.406219,247.233124 
	C323.286072,246.831909 318.088806,246.848694 312.966156,247.234222 
	C309.215576,247.516510 307.045868,249.941132 307.053009,253.978134 
	C307.078705,268.469879 307.097748,282.961823 307.042114,297.453400 
	C307.025757,301.722046 309.150696,304.189911 313.206635,304.461792 
	C318.162415,304.793915 323.171021,304.819000 328.127472,304.508514 
	C332.196106,304.253693 334.317902,301.788849 334.222168,297.489685 
	C334.103516,292.162109 334.200287,286.829712 334.203888,280.499695 
z"/>
<path fill="#8C5C33" opacity="1.000000" stroke="none" 
	d="
M137.322754,238.170563 
	C147.410767,235.630615 157.171570,235.379013 166.877975,237.879700 
	C176.479416,240.353363 181.192307,247.918655 179.546982,257.560822 
	C178.862396,261.572723 175.878235,261.911804 172.778214,261.865540 
	C169.757019,261.820435 167.285278,261.067444 166.901779,257.228241 
	C165.941055,247.610855 164.974396,246.775650 155.314606,246.699295 
	C151.659927,246.670395 147.978058,246.761932 144.353439,247.183823 
	C140.724030,247.606277 138.773560,249.874649 138.776123,253.656754 
	C138.786133,268.489777 138.789688,283.322784 138.776688,298.155792 
	C138.773514,301.759277 140.732651,304.077301 144.063629,304.315948 
	C149.678146,304.718140 155.361221,304.798615 160.972626,304.404480 
	C165.334625,304.098175 166.983322,301.039062 166.980179,296.692413 
	C166.976059,291.019867 168.596115,289.463470 173.448105,289.589264 
	C178.057938,289.708771 179.699020,291.744232 179.621552,297.246368 
	C179.495651,306.189728 175.841309,311.169128 167.108795,313.564514 
	C157.262741,316.265320 147.322617,316.344788 137.531693,313.276459 
	C129.369888,310.718689 125.961006,305.928223 125.923805,297.323914 
	C125.863281,283.324280 126.083473,269.321289 125.847473,255.325439 
	C125.706039,246.937637 129.125290,241.283173 137.322754,238.170563 
z"/>
<path fill="#7F5633" opacity="1.000000" stroke="none" 
	d="
M385.668030,240.095596 
	C383.838593,244.390366 381.586792,248.673218 379.550812,253.056335 
	C379.021576,254.195663 379.024231,255.647995 379.022827,256.956818 
	C378.994751,283.555267 379.001038,310.153778 379.004303,336.752258 
	C379.004425,337.582581 378.705292,338.735168 379.130219,339.183533 
	C380.467041,340.594055 382.006714,342.585327 383.614227,342.730438 
	C384.988525,342.854523 387.748688,340.843140 387.853363,339.603790 
	C388.406189,333.058472 388.221283,326.454681 388.499969,319.880005 
	C388.581238,317.962341 389.345154,316.073608 390.112732,314.046570 
	C390.390015,322.231110 390.187927,330.544373 390.375305,338.848907 
	C390.479797,343.482056 388.198914,345.156219 384.054474,345.187592 
	C379.907257,345.218994 377.516693,343.479889 377.524933,338.946686 
	C377.576416,310.525787 377.503082,282.104645 377.599304,253.684006 
	C377.619049,247.857803 379.900574,243.017563 385.668030,240.095596 
z"/>
<path fill="#F9F6F1" opacity="1.000000" stroke="none" 
	d="
M231.840240,154.414886 
	C223.333481,149.812775 219.622894,142.735901 220.107605,133.685883 
	C220.553787,125.355644 224.743103,119.275146 232.638138,116.023796 
	C242.877792,111.806885 256.258636,117.425957 260.077789,127.550201 
	C264.080414,138.160675 257.991272,151.144867 247.622696,155.143753 
	C242.200073,157.235138 237.257935,156.745804 231.840240,154.414886 
z"/>
<path fill="#FAF5EC" opacity="1.000000" stroke="none" 
	d="
M234.166626,264.242432 
	C235.045013,258.892883 235.668518,253.937653 236.827759,249.111084 
	C237.193909,247.586594 238.993271,246.406326 240.136688,245.068512 
	C241.620407,246.369949 244.019669,247.440552 244.416870,249.015915 
	C245.628098,253.820084 246.306137,258.796967 246.758270,263.746216 
	C247.693954,273.988647 248.517456,284.247833 249.059616,294.517426 
	C249.400681,300.977997 246.186035,304.635040 240.844940,304.740509 
	C235.365891,304.848694 231.635147,300.920319 231.944336,294.484589 
	C232.422104,284.540009 233.370270,274.618042 234.166626,264.242432 
z"/>
<path fill="#F6F3F1" opacity="1.000000" stroke="none" 
	d="
M390.363922,251.090256 
	C392.603760,247.169083 396.425964,247.037872 400.314667,246.727921 
	C417.101105,245.389969 418.679749,246.785492 418.678894,263.467224 
	C418.678314,274.282410 418.720825,285.097900 418.656067,295.912720 
	C418.617218,302.401306 417.002777,304.250061 410.494568,304.687714 
	C406.197021,304.976715 401.802704,305.082855 397.563110,304.483368 
	C395.204254,304.149811 393.073700,302.202057 390.589355,300.285461 
	C390.346954,283.422821 390.355438,267.256531 390.363922,251.090256 
z"/>
<path fill="#795230" opacity="1.000000" stroke="none" 
	d="
M389.996521,251.304718 
	C390.355438,267.256531 390.346954,283.422821 390.349701,300.015991 
	C389.919556,300.395050 389.091034,300.343842 389.091431,300.299896 
	C389.233215,284.039337 389.431671,267.779266 389.996521,251.304718 
z"/>
<path fill="#F8F6F4" opacity="1.000000" stroke="none" 
	d="
M334.203918,280.999573 
	C334.200287,286.829712 334.103516,292.162109 334.222168,297.489685 
	C334.317902,301.788849 332.196106,304.253693 328.127472,304.508514 
	C323.171021,304.819000 318.162415,304.793915 313.206635,304.461792 
	C309.150696,304.189911 307.025757,301.722046 307.042114,297.453400 
	C307.097748,282.961823 307.078705,268.469879 307.053009,253.978134 
	C307.045868,249.941132 309.215576,247.516510 312.966156,247.234222 
	C318.088806,246.848694 323.286072,246.831909 328.406219,247.233124 
	C332.489227,247.553055 334.305145,250.310577 334.242035,254.514984 
	C334.112030,263.174774 334.203522,271.837921 334.203918,280.999573 
z"/>
</svg>